<svg xmlns="http://www.w3.org/2000/svg"
 xmlns:xlink="http://www.w3.org/1999/xlink"
 width="16px" height="51px"  viewBox="0 0 16 51">
<path fill-rule="evenodd"  fill="#ffffff"
 d="M11.927734,2.5327148 C11.927734,2.5327148 2.1096191,24.536499 2.1096191,24.536499 C1.883667,25.042847 2.0178223,25.690369 2.4090576,25.982727 C2.800415,26.275116 3.3007812,26.10141 3.5268555,25.595032 C3.5268555,25.595032 13.344971,3.591278 13.344971,3.591278 C13.570923,3.0849 13.436768,2.4374084 13.04541,2.14505 C12.654175,1.8528442 12.153687,2.0263672 11.927734,2.5327148 ZM12.473267,48.46933 C12.473267,48.46933 2.6551514,26.586426 2.6551514,26.586426 C2.4291992,26.082642 2.5632324,25.438843 2.9545898,25.148102 C3.3458252,24.857391 3.8463135,25.029968 4.0722656,25.533417 C4.0722656,25.533417 13.890503,47.416656 13.890503,47.416656 C14.116333,47.920074 13.982178,48.564087 13.590942,48.854797 C13.199585,49.145508 12.699219,48.973114 12.473267,48.46933 Z"/>
</svg>