<svg xmlns="http://www.w3.org/2000/svg"
 xmlns:xlink="http://www.w3.org/1999/xlink"
 width="16px" height="51px"  viewBox="0 0 16 51">
<path fill-rule="evenodd"  fill="#c99c47"
 d="M11.927734,2.5327148 C11.927734,2.5327148 2.1096191,24.536743 2.1096191,24.536743 C1.8835754,25.042847 2.0177002,25.69043 2.4089966,25.982788 C2.800354,26.275146 3.3007202,26.101685 3.5267334,25.595215 C3.5267334,25.595215 13.344849,3.5915527 13.344849,3.5915527 C13.570862,3.085083 13.436737,2.437622 13.045349,2.1452637 C12.654083,1.8529053 12.1536255,2.0263672 11.927734,2.5327148 ZM12.473145,48.469482 C12.473145,48.469482 2.6550293,26.586426 2.6550293,26.586426 C2.4291382,26.082886 2.5631409,25.439087 2.9545288,25.148315 C3.3457947,24.857666 3.8462524,25.03003 4.0721436,25.53357 C4.0721436,25.53357 13.890381,47.416748 13.890381,47.416748 C14.116272,47.920288 13.982178,48.56433 13.590881,48.85498 C13.199493,49.145752 12.699158,48.973145 12.473145,48.469482 Z"/>
</svg>