<svg xmlns="http://www.w3.org/2000/svg"
 xmlns:xlink="http://www.w3.org/1999/xlink"
 width="16px" height="51px"  viewBox="0 0 16 51">
<path fill-rule="evenodd"  fill="#ffffff"
 d="M4.0721436,2.5327148 C4.0721436,2.5327148 13.890259,24.536499 13.890259,24.536499 C14.116211,25.042847 13.982178,25.690369 13.59082,25.982727 C13.199463,26.275116 12.699097,26.10141 12.473145,25.595032 C12.473145,25.595032 2.6550293,3.591278 2.6550293,3.591278 C2.428955,3.0849 2.5631104,2.4374084 2.9544678,2.14505 C3.3458252,1.8528442 3.8461914,2.0263672 4.0721436,2.5327148 ZM3.5267334,48.46933 C3.5267334,48.46933 13.344849,26.586426 13.344849,26.586426 C13.570679,26.082642 13.436768,25.438843 13.045288,25.148102 C12.654053,24.857391 12.153564,25.029968 11.927734,25.533417 C11.927734,25.533417 2.109497,47.416656 2.109497,47.416656 C1.8835449,47.920074 2.0177002,48.564087 2.4089355,48.854797 C2.800293,49.145508 3.3006592,48.973114 3.5267334,48.46933 Z"/>
</svg>