<svg xmlns="http://www.w3.org/2000/svg"
 xmlns:xlink="http://www.w3.org/1999/xlink"
 width="16px" height="51px"  viewBox="0 0 16 51">
<path fill-rule="evenodd"  fill="#c99c47"
 d="M4.0721436,2.5327148 C4.0721436,2.5327148 13.890259,24.536743 13.890259,24.536743 C14.116333,25.042847 13.982178,25.69043 13.590942,25.982788 C13.199463,26.275146 12.699219,26.101685 12.473145,25.595215 C12.473145,25.595215 2.6550293,3.5915527 2.6550293,3.5915527 C2.4290771,3.085083 2.5631104,2.437622 2.9545898,2.1452637 C3.3458252,1.8529053 3.8463135,2.0263672 4.0721436,2.5327148 ZM3.5267334,48.469482 C3.5267334,48.469482 13.344849,26.586426 13.344849,26.586426 C13.570801,26.082886 13.436768,25.439087 13.04541,25.148315 C12.654053,24.857666 12.153687,25.03003 11.927734,25.53357 C11.927734,25.53357 2.109497,47.416748 2.109497,47.416748 C1.8835449,47.920288 2.0177002,48.56433 2.4089355,48.85498 C2.800415,49.145752 3.3007812,48.973145 3.5267334,48.469482 Z"/>
</svg>